<svg xmlns="http://www.w3.org/2000/svg" xmlns:xlink="http://www.w3.org/1999/xlink" width="334" height="65" viewBox="0 0 334 65">
  <defs>
    <polygon id="kinesis_explorer_midnight-a" points=".549 .365 45.138 .365 45.138 43.508 .549 43.508"/>
  </defs>
  <g fill="none" fill-rule="evenodd">
    <polygon fill="#0D1D2C" points="0 54.431 17.913 36.518 17.913 .691 0 .691"/>
    <polygon fill="#0D1D2C" points="35.827 .691 35.827 18.604 53.739 .691"/>
    <g transform="translate(20.027 20.82)">
      <mask id="kinesis_explorer_midnight-b" fill="#fff">
        <use xlink:href="#kinesis_explorer_midnight-a"/>
      </mask>
      <path fill="#0D1D2C" d="M37.1279006,35.0270718 L13.2183702,0.364779006 L0.549171271,13.0339779 L17.9303867,38.3958564 C20.4379834,42.0553867 24.0546961,43.5084254 27.9462707,43.5084254 L45.1382597,43.5084254 C42.1714088,41.1914365 39.0788674,37.8564917 37.1279006,35.0270718" mask="url(#kinesis_explorer_midnight-b)"/>
    </g>
    <path fill="#0D1D2C" fill-rule="nonzero" d="M146.095655,44.25 L146.095655,41.362 L132.225655,41.362 L132.225655,31.026 L144.195655,31.026 L144.195655,28.176 L132.225655,28.176 L132.225655,17.878 L145.715655,17.878 L145.715655,14.99 L128.919655,14.99 L128.919655,44.25 L146.095655,44.25 Z M154.461655,44.25 L163.543655,31.938 L172.663655,44.25 L176.539655,44.25 L165.367655,29.24 L175.969655,14.99 L172.169655,14.99 L163.543655,26.656 L154.917655,14.99 L151.155655,14.99 L161.833655,29.24 L150.585655,44.25 L154.461655,44.25 Z M184.905655,44.25 L184.905655,31.596 L190.833655,31.596 C195.849655,31.596 200.333655,28.594 200.333655,23.464 C200.333655,17.992 195.925655,14.99 190.491655,14.99 L181.599655,14.99 L181.599655,44.25 L184.905655,44.25 Z M190.833655,28.708 L184.905655,28.708 L184.905655,17.878 L190.491655,17.878 C193.873655,17.878 196.951655,19.778 196.951655,23.464 C196.951655,26.656 194.025655,28.708 190.833655,28.708 Z M224.089655,44.25 L224.089655,41.362 L210.219655,41.362 L210.219655,14.99 L206.913655,14.99 L206.913655,44.25 L224.089655,44.25 Z M240.511655,44.63 C248.719655,44.63 255.445655,37.904 255.445655,29.582 C255.445655,21.45 248.833655,14.61 240.511655,14.61 C232.189655,14.61 225.425655,21.374 225.425655,29.582 C225.425655,37.904 232.227655,44.63 240.511655,44.63 Z M240.511655,41.742 C234.013655,41.742 228.807655,36.042 228.807655,29.582 C228.807655,23.16 234.013655,17.498 240.511655,17.498 C246.933655,17.498 252.063655,23.16 252.063655,29.582 C252.063655,36.042 246.933655,41.742 240.511655,41.742 Z M265.331655,44.25 L265.331655,31.596 L270.423655,31.596 L279.087655,44.25 L282.925655,44.25 L273.919655,31.254 C277.757655,30.38 280.835655,27.796 280.835655,23.54 C280.835655,17.954 276.237655,14.99 270.955655,14.99 L262.025655,14.99 L262.025655,44.25 L265.331655,44.25 Z M271.031655,28.708 L265.331655,28.708 L265.331655,17.878 L270.955655,17.878 C274.337655,17.878 277.453655,19.854 277.453655,23.54 C277.453655,26.732 274.337655,28.708 271.031655,28.708 Z M305.921655,44.25 L305.921655,41.362 L292.051655,41.362 L292.051655,31.026 L304.021655,31.026 L304.021655,28.176 L292.051655,28.176 L292.051655,17.878 L305.541655,17.878 L305.541655,14.99 L288.745655,14.99 L288.745655,44.25 L305.921655,44.25 Z M315.997655,44.25 L315.997655,31.596 L321.089655,31.596 L329.753655,44.25 L333.591655,44.25 L324.585655,31.254 C328.423655,30.38 331.501655,27.796 331.501655,23.54 C331.501655,17.954 326.903655,14.99 321.621655,14.99 L312.691655,14.99 L312.691655,44.25 L315.997655,44.25 Z M321.697655,28.708 L315.997655,28.708 L315.997655,17.878 L321.621655,17.878 C325.003655,17.878 328.119655,19.854 328.119655,23.54 C328.119655,26.732 325.003655,28.708 321.697655,28.708 Z"/>
    <polygon fill="#0D1D2C" fill-rule="nonzero" points="94.25 .6 94.25 64.6 92.75 64.6 92.75 .6"/>
  </g>
</svg>
