<?xml version="1.0" encoding="UTF-8"?>
<svg width="346px" height="146px" viewBox="0 0 346 146" version="1.1" xmlns="http://www.w3.org/2000/svg" xmlns:xlink="http://www.w3.org/1999/xlink">
    <title>Group</title>
    <g id="Page-1" stroke="none" stroke-width="1" fill="none" fill-rule="evenodd">
        <g id="Group" transform="translate(0.000100, 0.000200)">
            <path d="M49.967,-5.68434189e-14 L0,145.053 L35.007,145.053 L44.518,115.591 L92.105,115.591 L101.716,145.053 L136.721,145.053 L86.648,-5.68434189e-14 L49.967,-5.68434189e-14 Z M68.264,42.187 L83.351,88.393 L53.265,88.393 L68.264,42.187 Z" id="Fill-1" fill="#3B4A5C"></path>
            <polygon id="Fill-2" fill="#3B4A5C" points="214.7111 -7.10542736e-15 254.4221 59.039 270.0361 34.297 250.7961 -7.10542736e-15"></polygon>
            <polygon id="Fill-3" fill="#3B4A5C" points="214.6229 145.0548 251.0239 145.0548 272.8829 106.0248 255.1089 80.0888"></polygon>
            <polygon id="Fill-4" fill="#C7A61F" points="305.5706 -5.68434189e-14 262.1596 69.247 314.1136 145.053 345.7196 145.053 297.2366 71.612 340.4096 -5.68434189e-14"></polygon>
            <polygon id="Fill-5" fill="#C7A61F" points="229.1657 86.1264 238.1037 86.1264 249.5257 69.6854 231.9957 41.9304 223.0577 41.9304 240.5877 69.6854"></polygon>
            <path d="M218.8918,81.2368 C214.7808,76.3588 209.2398,72.6268 202.3798,70.1048 C203.2068,69.3968 204.0468,68.6348 204.8888,67.8198 C206.9278,65.8568 208.8268,63.5178 210.5308,60.8698 C212.2448,58.2118 213.6798,55.1428 214.7978,51.7468 C215.9338,48.3018 216.5098,44.4208 216.5098,40.2168 C216.5098,34.2458 215.2668,28.7408 212.8178,23.8458 C210.3678,18.9438 206.7638,14.6888 202.1008,11.1928 C197.4968,7.7418 191.8498,4.8388 185.3228,2.9858 C178.8528,1.1448 171.4058,0.0008 163.1808,0.0008 L98.0298,0.0008 L112.5528,43.8768 L148.1428,145.0528 L170.5188,145.0528 C178.9538,145.0528 186.6648,144.1988 193.4398,142.2598 C200.2748,140.2998 206.1978,137.5368 211.0428,133.9108 C215.9428,130.2448 219.7558,125.7998 222.3708,120.6328 C224.9948,115.4658 226.3258,109.6918 226.3258,103.4448 C226.3258,94.5528 223.8258,87.0928 218.8918,81.2368 L218.8918,81.2368 Z M146.8078,28.3308 L160.9788,28.3308 C167.9728,28.3308 173.0968,29.3878 176.3508,31.6318 C179.6048,33.8748 181.2308,37.5488 181.2308,42.7188 C181.2308,47.8868 179.8078,51.5248 176.9618,54.1338 C174.1148,56.7488 169.1938,57.7968 162.1998,57.7968 L146.8078,57.7968 L146.8078,28.3308 Z M185.6418,113.6298 C181.5798,116.3758 175.3898,117.8548 167.0698,117.8548 L146.8078,117.8548 L146.8078,84.9938 L166.4758,84.9938 C183.3188,84.9938 191.7408,90.3378 191.7408,100.7008 C191.7408,106.4668 189.7048,110.8828 185.6418,113.6298 L185.6418,113.6298 Z" id="Fill-6" fill="#3B4A5C"></path>
        </g>
    </g>
</svg>